<?xml version="1.0" standalone="no"?><!DOCTYPE svg PUBLIC "-//W3C//DTD SVG 1.1//EN" "http://www.w3.org/Graphics/SVG/1.1/DTD/svg11.dtd"><svg class="icon" width="48px" height="48.00px" viewBox="0 0 1024 1024" version="1.1" xmlns="http://www.w3.org/2000/svg"><path fill="#000000" d="M184.32 471.04v-102.4c0-180.224 147.456-327.68 327.68-327.68s327.68 147.456 327.68 327.68v102.4h40.96c22.528 0 40.96 18.432 40.96 40.96v430.08c0 22.528-18.432 40.96-40.96 40.96h-737.28c-22.528 0-40.96-18.432-40.96-40.96v-430.08c0-22.528 18.432-40.96 40.96-40.96h40.96z m40.96 0h573.44v-102.4c0-157.696-129.024-286.72-286.72-286.72s-286.72 129.024-286.72 286.72v102.4z m307.2 262.144v86.016c0 12.288-8.192 20.48-20.48 20.48s-20.48-8.192-20.48-20.48v-86.016c-18.432-8.192-30.72-26.624-30.72-47.104 0-28.672 22.528-51.2 51.2-51.2s51.2 22.528 51.2 51.2c0 20.48-12.288 38.912-30.72 47.104z m348.16 208.896v-430.08h-737.28v430.08h737.28z" /></svg>